<svg xmlns="http://www.w3.org/2000/svg" xmlns:xlink="http://www.w3.org/1999/xlink" viewBox="0 0 182.36 182.22"><defs><style>.cls-1{fill:url(#linear-gradient);}.cls-2{fill:#2681ff;}</style><linearGradient id="linear-gradient" x1="78.58" y1="97.95" x2="31.41" y2="179.65" gradientUnits="userSpaceOnUse"><stop offset="0" stop-color="#0052cc"/><stop offset="0.92" stop-color="#2684ff"/></linearGradient></defs><title>Atlassian-vertical-blue-white</title><g id="Layer_2" data-name="Layer 2"><g id="Blue"><path class="cls-1" d="M54.08,84.15c-2.72-2.91-7-2.75-8.82,1L.57,174.48a5.34,5.34,0,0,0,4.78,7.73H67.58a5.15,5.15,0,0,0,4.78-3C85.78,151.52,77.65,109.33,54.08,84.15Z"/><path class="cls-2" d="M86.87,2.86c-25,39.6-23.35,83.46-6.88,116.38l30,60a5.34,5.34,0,0,0,4.78,3H177a5.34,5.34,0,0,0,4.78-7.73S98.06,7,96,2.83C94.07-.92,89.29-1,86.87,2.86Z"/></g></g></svg>