<svg id="Layer_1" data-name="Layer 1" xmlns="http://www.w3.org/2000/svg" viewBox="0 0 353.17 95"><defs>
<style>.cls-1{fill:#3f5dff;}</style>
</defs><title>LoopBack Full Logo (blue)</title>
<path class="cls-1"  />
<polygon class="cls-1" points="31.11 79 43.46 71.07 59.07 79.98 74.83 70.77 87.89 78.21 59.15 95 31.11 79"/>
<polygon class="cls-1" points="25.91 19.2 58.75 0 91.82 18.86 91.93 52.05 78.89 44.61 78.83 26.43 58.84 15.03 38.94 26.65 38.99 44.82 34.56 47.41 26.01 52.89 25.91 19.2"/>
<polygon class="cls-1" points="43.63 31.29 53.03 36.64 43.67 42.1 43.63 31.29"/>
<polygon class="cls-1" points="64.94 58.38 77.88 50.8 93.95 59.95 104.86 53.58 104.79 40.95 96.56 36.25 96.51 21.25 117.9 33.45 117.91 61.02 94.03 74.97 64.94 58.38"/><polygon class="cls-1" points="0.14 61.63 0 33.98 21.23 21.58 21.28 36.62 13.05 41.42 13.11 54.05 24.09 60.31 74.17 31.09 74.22 46.13 24.16 75.33 0.14 61.63"/>
</svg>
