<?xml version="1.0" encoding="utf-8"?>
<svg version="1.1" xmlns="http://www.w3.org/2000/svg" xmlns:xlink="http://www.w3.org/1999/xlink" x="0px" y="0px" viewBox="0 0 1000 1000" enable-background="new 0 0 1000 1000" xml:space="preserve">
<g><g transform="translate(0.000000,511.000000) scale(0.100000,-0.100000)"><path fill="#ffffff" d="M2934.7,4359.1l-160.8-321.6l-139.7,44c-302.4,95.7-639.3,101.4-974.3,17.2C469.4,3798.2-97.1,2412.5,544.1,1369.3c166.5-269.9,505.3-585.7,740.7-689.1c32.5-15.3,59.3-32.5,59.3-42.1c0-7.7-34.4-114.8-76.6-237.3C1137.4,23.7,1093.4-227,1081.9-661.5c-7.7-245-1.9-444.1,13.4-562.7c24.9-201,107.2-560.8,170.4-742.7c23-63.2,38.3-114.8,36.4-116.7c-3.8-1.9-151.2-65.1-331.1-143.6c-178-76.6-327.3-141.7-331.1-143.6c-9.6-7.7,1548.5-624,1588.7-627.8c30.6-3.8,86.1,120.6,350.3,788.6c174.2,436.4,312,796.3,308.2,802c-3.8,3.8-139.7-49.8-302.4-120.6c-160.8-70.8-302.4-132.1-315.8-137.8c-32.5-13.4-112.9,258.4-151.2,513c-55.5,382.8-15.3,838.4,107.2,1204c222,664.2,748.4,1253.7,1380,1548.5c350.3,162.7,625.9,229.7,1022.1,243.1c480.4,19.1,834.5-57.4,1263.3-269.9c296.7-147.4,518.7-310.1,740.7-543.6C7004,638.1,7245.2,152,7327.5-376.3c38.3-233.5,26.8-733.1-19.1-941.7c-72.7-327.3-216.3-662.3-398.1-937.9c-55.5-84.2-199.1-252.7-321.6-375.1c-327.3-333.1-641.2-526.4-1077.6-666.1c-373.2-118.7-300.5-116.7-2974.5-116.7H100v-516.8v-516.8h2350.5c1397.3,0,2438.5,7.7,2568.7,19.1c1475.7,128.2,2710.3,1100.6,3175.4,2497.9c432.6,1299.6,97.6,2733.3-865.2,3707.5c-572.3,580-1286.3,941.7-2088.3,1058.5c-243.1,34.4-752.2,40.2-978.1,9.6c-409.6-57.4-809.6-179.9-1159.9-354.1c-400-201-685.2-411.5-1008.7-744.6c-109.1-111-208.6-202.9-220.1-202.9c-53.6,0-222,97.6-313.9,179.9c-68.9,63.2-122.5,135.9-172.3,237.3c-65.1,130.2-72.7,162.7-78.5,325.4c-5.7,149.3,0,199.1,34.4,296.7c118.7,323.5,388.5,528.3,719.7,545.5c88.1,5.7,179.9,3.8,206.7-3.8l49.8-11.5l-155-308.2c-84.2-170.3-149.3-312-145.5-315.8c9.6-9.6,1604,526.4,1627,547.4c13.4,11.5-511,1598.2-539.8,1630.8C3099.3,4674.9,3022.8,4537.1,2934.7,4359.1z"/><path d="M7654.8-3557.5c-250.8-273.7-717.8-629.7-1048.9-796.2c-84.2-40.2-151.2-78.5-151.2-84.2s775.2-9.6,1722.7-9.6H9900v516.8v516.8H8843.4H7785L7654.8-3557.5z"/></g></g>
</svg>